<?xml version="1.0" encoding="utf-8"?>
<!-- Generator: Adobe Illustrator 25.2.1, SVG Export Plug-In . SVG Version: 6.00 Build 0)  -->
<svg version="1.1" id="Layer_1" xmlns="http://www.w3.org/2000/svg" xmlns:xlink="http://www.w3.org/1999/xlink" x="0px" y="0px"
	 viewBox="0 0 20 20" style="enable-background:new 0 0 20 20;" xml:space="preserve">
<style type="text/css">
	.st0{fill:#2B2F34;}
</style>
<path class="st0" d="M19.2,8.3c0.3,0,0.6-0.3,0.6-0.6v-3c0-0.3-0.3-0.6-0.6-0.6H0.6C0.3,4.1,0,4.4,0,4.7v3C0,8,0.3,8.3,0.6,8.3
	c0.9,0,1.7,0.8,1.7,1.7c0,0.9-0.8,1.7-1.7,1.7C0.3,11.7,0,12,0,12.3v3c0,0.3,0.3,0.6,0.6,0.6h18.6c0.3,0,0.6-0.3,0.6-0.6v-3
	c0-0.3-0.3-0.6-0.6-0.6c-0.9,0-1.7-0.8-1.7-1.7C17.5,9.1,18.2,8.3,19.2,8.3z M18.6,12.8v2h-12V13c0-0.3-0.3-0.6-0.6-0.6
	S5.5,12.7,5.5,13v1.7H1.1v-2c1.3-0.3,2.3-1.4,2.3-2.8c0-1.4-1-2.5-2.3-2.8v-2h4.4V7c0,0.3,0.3,0.6,0.6,0.6S6.6,7.3,6.6,7V5.3h12v2
	c-1.3,0.3-2.3,1.4-2.3,2.8C16.3,11.4,17.3,12.5,18.6,12.8z"/>
<path class="st0" d="M6.1,8.7c-0.3,0-0.6,0.3-0.6,0.6v1.5c0,0.3,0.3,0.6,0.6,0.6c0.3,0,0.6-0.3,0.6-0.6V9.2C6.6,8.9,6.4,8.7,6.1,8.7
	z"/>
</svg>
