<?xml version="1.0" encoding="utf-8"?>
<!-- Generator: Adobe Illustrator 25.2.1, SVG Export Plug-In . SVG Version: 6.00 Build 0)  -->
<svg version="1.1" id="Layer_1" xmlns="http://www.w3.org/2000/svg" xmlns:xlink="http://www.w3.org/1999/xlink" x="0px" y="0px"
	 viewBox="0 0 24 24" style="enable-background:new 0 0 24 24;" xml:space="preserve">
<style type="text/css">
	.st0{fill:#2B2F34;}
</style>
<path class="st0" d="M21.5,16.6c0-0.9,1.1-4.4,1.5-5.7c0-0.1,0-0.2-0.1-0.3c-0.1-0.1-0.2-0.2-0.3-0.2c-1.1,0-2.3-0.2-3.4-0.4
	c-1-0.2-2.1-0.1-3.1,0.1l-0.2-0.4c-0.2-0.5-0.7-0.9-1.2-1.1l-0.1,0c0.1-0.7-0.2-1.4-0.8-1.7l-0.4-0.2V6.6c0-0.4-0.2-0.8-0.6-1
	L12,5.3c-0.2-0.1-0.4-0.1-0.7-0.1c-0.1-0.3-0.3-0.6-0.5-0.7l-0.7-0.5L9.4,3.2c0,0,0,0,0,0c0,0,0,0,0,0c0,0-0.1,0-0.1-0.1h0
	c0,0-0.1,0-0.1,0h0c0,0,0,0,0,0c0,0,0,0,0,0c0,0,0,0-0.1,0c0,0,0,0,0,0c0,0,0,0,0,0c0,0-0.1,0.1-0.1,0.1c0,0,0,0,0,0
	c0,0.1-0.1,0.1-0.1,0.2C8.5,2,8.3,0.4,8.3,0.4c0-0.1-0.1-0.2-0.2-0.3C8,0,7.9,0,7.8,0C3.9,1.8,2.4,0.5,2.4,0.5
	C2.3,0.4,2.2,0.4,2,0.4C1.9,0.5,1.8,0.6,1.8,0.8c0,0.5,0.3,1.2,0.7,2c-0.6-0.3-1-0.5-1-0.5c-0.1-0.1-0.3-0.1-0.4,0
	C1.1,2.4,1,2.6,1,2.7c0,0.7,0.2,1.4,0.4,2.1C1.5,5.1,2,5.7,2.8,6.3C3,7.2,3.2,8.1,3.3,8.9c0,0.2,0.2,0.3,0.4,0.3
	c0.3,0,0.6,0,0.8,0.1c0,0.2-0.1,0.5-0.1,0.7c0,0.6,0.2,1.1,0.5,1.6c0.9,1.7,0.8,3.6-0.1,5.3l-2.7,4.5c-0.2,0.4-0.2,0.8,0,1.2
	c0.2,0.4,0.6,0.6,1,0.6H9c0.4,0,0.8-0.2,1-0.6l1-2.1c0.2-0.4,0.4-0.8,0.5-1.2c0.1-0.4,0.3-0.8,0.5-1.1l0.1-0.2l1.9-1.5l0,0l2.1,3.4
	c0.1,0.1,0.2,0.2,0.3,0.2c0,0,0.1,0,0.1,0c0.4-0.1,3.6-0.8,4.5-2.1c0.1-0.1,0.1-0.3,0-0.4L20.6,17h0.5C21.3,17,21.5,16.8,21.5,16.6z
	 M14.2,9.3l0.2,0.1c0.3,0.1,0.6,0.4,0.8,0.7l0.3,0.6c-0.1,0-0.1,0.1-0.2,0.1c0,0-0.1,0.1-0.1,0.1c0,0-0.1,0.1-0.1,0.1
	c-0.1,0.1-0.2,0.2-0.3,0.2c0,0-0.1,0.1-0.1,0.1l-0.1,0.1c-0.1,0.1-0.2,0.2-0.3,0.3c0,0-0.1,0.1-0.1,0.1c-0.1,0.1-0.3,0.3-0.4,0.4
	c-0.1,0.1-0.2,0.2-0.3,0.3l0,0c-0.1,0.1-0.1,0.1-0.2,0.2l0,0c0,0-0.1,0.1-0.1,0.1c0,0,0,0,0,0c-0.2,0.2-0.4,0.3-0.6,0.4
	c-0.1-0.2-0.3-0.4-0.5-0.6c0,0,0-0.1,0-0.1C12.2,12.1,12.9,10.7,14.2,9.3z M13.1,7.4l0.4,0.2c0.3,0.2,0.5,0.6,0.4,0.9l0,0.1
	c-1.3,1.3-2,2.6-2.3,3.4c-0.3-0.4-0.6-0.7-0.9-1.1c0.5-0.3,0.9-1.1,1.6-2.2C12.4,8.4,12.7,7.9,13.1,7.4z M11.3,6L11.3,6
	c0.1-0.1,0.2-0.1,0.4-0.1l0.7,0.4c0.1,0.1,0.2,0.2,0.2,0.3v0.2c-0.4,0.5-0.8,1.1-1.1,1.7c-0.4,0.8-1,1.8-1.4,2c0,0,0,0,0,0
	C9.8,10.3,9.6,10,9.4,9.8c0-0.1,0.1-0.1,0.1-0.2C9.5,8.9,10.6,7,11.3,6L11.3,6z M10,4.8l0.4,0.3c0.1,0.1,0.2,0.2,0.2,0.4v0.2
	C10.3,6.1,9.2,7.8,8.8,9c0.1-0.4,0.1-0.8,0-1.2C10.1,6.9,10.2,5.7,10,4.8L10,4.8z M7.6,1C7.7,1.8,7.8,3.3,8,4.5l0,0
	c0,0-0.1,0.1-0.1,0.1c0,0-0.1,0.1-0.1,0.1c0,0,0,0-0.1,0.1c0,0-0.1,0.1-0.1,0.1c0,0,0,0-0.1,0c0,0-0.1,0.1-0.2,0.1l-0.1,0l0,0
	C6.7,5.4,6.2,5.9,5.8,6.5c0,0,0-0.1-0.1-0.1C5.6,6.2,5.4,6.1,5.3,5.9C5.2,5.8,5.2,5.7,5.1,5.5L4.9,5.3C4.8,5.1,4.7,4.9,4.5,4.7
	C4.5,4.6,4.4,4.5,4.3,4.4C4.3,4.3,4.2,4.2,4.2,4.1C4.1,4,4,3.9,3.9,3.7c0-0.1-0.1-0.1-0.1-0.2c-0.4-0.6-0.8-1.3-1.1-2
	C3.6,1.8,5.2,2,7.6,1z M5,8c0,0,0,0.1-0.1,0.1c0,0,0,0.1-0.1,0.2c0,0.1,0,0.1-0.1,0.2c0,0,0,0.1,0,0.1C4.5,8.5,4.3,8.5,4,8.5
	c0-0.3-0.1-0.8-0.3-1.4C4.1,7.4,4.5,7.7,5,8L5,8C5,8,5,8,5,8z M4.9,7L4.9,7C4.3,6.6,3.8,6.2,3.4,5.8C2.6,5.2,2.2,4.7,2.1,4.5
	C2,4.1,1.9,3.7,1.8,3.4C2.2,3.5,2.7,3.7,3.2,4c0.6,1,1.4,2.2,2.1,3.2c0,0.1,0.1,0.1,0.1,0.2l0,0l0,0C5.2,7.2,5.1,7.2,5,7.1
	C5,7.1,5,7,4.9,7z M11.6,17.5c0,0-0.1,0.1-0.1,0.1l-0.1,0.2c-0.2,0.4-0.4,0.8-0.5,1.2c-0.1,0.4-0.3,0.7-0.4,1.1l-1,2.1
	c-0.1,0.1-0.2,0.2-0.3,0.2H3.1c-0.1,0-0.3-0.1-0.3-0.2s-0.1-0.3,0-0.4l2.7-4.5c1.1-1.8,1.2-4.1,0.1-6c-0.2-0.4-0.4-0.8-0.4-1.3
	c0-0.3,0-0.7,0.1-1c0.1-0.3,0.2-0.7,0.4-1c0,0,0.1-0.1,0.1-0.1c0,0,0,0,0-0.1c0,0,0,0,0,0c0,0,0-0.1,0-0.1c0-0.1,0-0.1,0.1-0.2
	c0-0.1,0-0.1,0.1-0.2l0,0c0-0.1,0.1-0.1,0.1-0.2l0,0c0-0.1,0.1-0.1,0.1-0.2l0,0c0.4-0.5,0.8-1,1.4-1.3c0,0,0,0,0,0
	c0.1,0,0.1-0.1,0.2-0.1c0,0,0.1-0.1,0.1-0.1c0,0,0.1-0.1,0.1-0.1c0,0,0.1-0.1,0.1-0.1c0,0,0.1-0.1,0.1-0.2c0,0,0-0.1,0.1-0.1
	c0.2-0.2,0.4-0.5,0.6-0.8c0.4,1,0.5,2.1-1,3.1C8,7.5,7.9,7.7,8,7.9c0.2,0.4,0.2,0.8,0,1.2c-0.1,0.1,0,0.3,0.1,0.4c0,0,3,3,4.2,4.7
	c0.1,0.1,0.2,0.2,0.3,0.2c0,0,0.1,0,0.1,0l0.9,1.4L11.6,17.5z M8.8,9.2L8.8,9.2L8.8,9.2z M16.6,19.2L13.3,14
	c0.2-0.1,0.3-0.3,0.5-0.4c0,0,0,0,0,0c0,0,0.1,0,0.1,0c0,0,0.1,0,0.1,0c0,0,0.1,0,0.1,0c0.1,0,0.1,0,0.2,0.1c0,0,0.1,0,0.1,0
	c0.1,0,0.1,0,0.2,0.1c0,0,0.1,0,0.1,0c0.1,0,0.1,0.1,0.2,0.1l0.1,0c0.1,0,0.2,0.1,0.2,0.1l0.1,0c0.1,0,0.2,0.1,0.3,0.1l0,0
	c0.1,0.1,0.2,0.1,0.3,0.2l0,0c0.9,0.5,1.7,1.1,2.4,1.5c0.4,0.3,0.8,0.5,1.2,0.8l0.6,0.8C19.5,18.4,17.6,19,16.6,19.2L16.6,19.2z
	 M20,16.2c-0.4-0.2-0.8-0.5-1.1-0.7c-1.1-0.7-2.2-1.4-3.3-2l-0.1,0c-0.2-0.1-0.3-0.2-0.5-0.2l-0.1,0c-0.2-0.1-0.3-0.1-0.5-0.2
	c0,0,0,0,0,0c0,0,0.1-0.1,0.1-0.1c0.5-0.6,1.1-1.2,1.8-1.7c0,0,0.1-0.1,0.1-0.1c0,0,0,0,0,0c0,0,0,0,0,0c0,0,0,0,0,0l0-0.1
	c0.9-0.2,1.7-0.2,2.6,0c1,0.2,2,0.3,3,0.4c-0.4,1.1-1.2,3.8-1.4,5H20z"/>
<path class="st0" d="M7.6,14.7c-0.2,0-0.4,0.1-0.4,0.3c0,0.2,0.1,0.4,0.3,0.5c0,0,1.8,0.4,2.4,1.7c0.1,0.2,0.3,0.3,0.5,0.2
	c0.2-0.1,0.3-0.3,0.2-0.5C9.8,15.1,7.7,14.7,7.6,14.7z"/>
</svg>
