<?xml version="1.0" encoding="utf-8"?>
<!-- Generator: Adobe Illustrator 25.2.1, SVG Export Plug-In . SVG Version: 6.00 Build 0)  -->
<svg version="1.1" id="Layer_1" xmlns="http://www.w3.org/2000/svg" xmlns:xlink="http://www.w3.org/1999/xlink" x="0px" y="0px"
	 viewBox="0 0 20 20" style="enable-background:new 0 0 20 20;" xml:space="preserve">
<path d="M9.27,0.08c0.32-0.11,0.67-0.02,0.96,0.13c0.2,0.13,0.41,0.26,0.64,0.35c0.02,0.03,0.05,0.1,0.07,0.13
	c-0.01,0.02-0.03,0.07-0.04,0.09c0.16,0.37,0.27,0.81,0.11,1.2c-0.11,0.13-0.29,0.15-0.45,0.2c0,0.19,0.03,0.37,0.05,0.56
	c0.32,0.05,0.6-0.17,0.92-0.15c0.04-0.18,0.08-0.36,0.13-0.54c0.07,0.12,0.07,0.25,0.07,0.38c0.08,0.02,0.17,0.05,0.25,0.07
	c0,0.03,0,0.1,0,0.13c1.41,0.01,2.81-0.01,4.21,0.01c0,0.05-0.01,0.14-0.01,0.19c0.04,0,0.11,0,0.15,0c0-0.26,0-0.51,0-0.77
	c0.04,0,0.11,0,0.14,0c0,0.2,0,0.4,0,0.6c0.03,0.04,0.09,0.11,0.12,0.15c0.02-0.03,0.07-0.08,0.09-0.11
	c0.11,0.1,0.05,0.24,0.04,0.36c0.39,0,0.79,0.02,1.18-0.01c0.03-0.02,0.09-0.06,0.12-0.09C18.09,2.98,18.15,3,18.2,3.02
	c0.18,0,0.35,0,0.53-0.01c0,0.09-0.01,0.18-0.01,0.27c-0.23,0-0.46-0.01-0.68,0.03c-0.15-0.12-0.34-0.09-0.52-0.09
	c-0.27,0.01-0.55-0.03-0.81,0.05c-0.16,0.04-0.33,0.03-0.46-0.06c-0.03,0.08,0.02,0.26-0.12,0.26c-0.54,0.01-1.08,0-1.62,0
	c-0.07,0.04-0.15,0.08-0.22,0.11c-0.08,0.23-0.3,0.39-0.49,0.53c-0.02,0.36,0.12,0.69,0.17,1.04c-0.11,0.03-0.21,0.06-0.32,0.1
	c-0.15,0.36-0.06,0.85-0.41,1.1c-0.27,0.16-0.45,0.5-0.81,0.44L12.4,6.8c-0.66-0.06-1.21-0.45-1.78-0.75
	c-0.03,0.16-0.07,0.32-0.11,0.48c0.22,0.04,0.4,0.2,0.43,0.42c0.07,0.48-0.07,0.96-0.07,1.45c0.02,0.28-0.11,0.55-0.26,0.78
	c-0.13,0.15-0.34,0-0.5-0.03c-0.04,0.07-0.07,0.14-0.11,0.21c0.05,0.19,0.06,0.39,0.13,0.57c0.36,0.39,0.68,0.82,0.93,1.29
	c0.26,0.53,0.49,1.08,0.69,1.64c0.02,0.11,0.12,0.15,0.21,0.19c0.01,0.11,0.02,0.22,0.03,0.34c0.03,0.05,0.07,0.1,0.11,0.15
	c0.02,0.69-0.06,1.37-0.17,2.05c-0.07,0.31,0.11,0.61,0.04,0.91c0.01,0.16-0.1,0.28-0.15,0.42c-0.01,0.33-0.03,0.66,0.01,0.98
	c0.03,0.24,0.23,0.39,0.36,0.57c0.15,0.16,0.27,0.37,0.5,0.43c0.21,0.06,0.42,0.16,0.6,0.28c0.06,0.14,0.05,0.29,0.02,0.44
	c-0.41,0.08-0.83,0.04-1.24,0.04c-0.32,0.02-0.6-0.15-0.91-0.19c-0.3-0.01-0.66,0.14-0.9-0.13c0.1-0.37,0.11-0.77,0.28-1.12
	c0.06-0.39-0.05-0.79-0.03-1.19c-0.03-0.03-0.1-0.09-0.14-0.11c0.02-0.26-0.1-0.49-0.15-0.74c-0.03-0.36-0.06-0.72-0.1-1.08
	c-0.03-0.18,0.06-0.34,0.18-0.45c0.01-0.2,0.04-0.4,0.06-0.6c-0.03-0.13-0.13-0.23-0.2-0.34c-0.22,0.09-0.53,0.05-0.66-0.17
	c-0.32-0.47-0.63-0.94-0.95-1.41c-0.13-0.01-0.26,0-0.38-0.05c-0.14-0.14-0.21-0.32-0.29-0.49c-0.12,0.14-0.11,0.35-0.26,0.48
	c-0.31,0.3-0.39,0.73-0.55,1.12c-0.12,0.25-0.05,0.55-0.19,0.79c-0.07,0.13-0.26,0.16-0.31,0.3c-0.06,0.16-0.14,0.33-0.29,0.42
	c-0.16,0.11-0.21,0.31-0.28,0.48c-0.07,0.15,0.03,0.32,0.01,0.47c-0.1,0.5-0.42,0.92-0.56,1.42c-0.06,0.22-0.15,0.47-0.41,0.52
	c-0.29,0.53-0.46,1.17-0.29,1.76c0.1,0.19,0.1,0.39,0.06,0.6c-0.47,0.04-0.95,0.1-1.41-0.03c-0.11-0.21-0.09-0.46-0.07-0.69
	c0.14-0.61,0.33-1.2,0.44-1.81c-0.14-0.13-0.11-0.32-0.11-0.49c0-0.32,0.21-0.57,0.36-0.84c0.06-0.27,0.03-0.56,0.17-0.8
	c0.16-0.31,0.3-0.64,0.55-0.89C4.83,14.17,5,14,5.06,13.79c0.07-0.19-0.05-0.38-0.03-0.57c0.06-0.58,0.17-1.16,0.26-1.73
	c-0.17-0.14-0.12-0.37-0.17-0.57c0.03-0.08,0.06-0.15,0.1-0.22c-0.04-0.04-0.09-0.08-0.13-0.12c0.04-0.2,0.03-0.57,0.34-0.5
	C5.45,9.4,5.22,8.74,5.3,8.06c0.04,0.05,0.08,0.1,0.13,0.15L5.4,7.98c0.13-0.07,0.27-0.12,0.42-0.15C5.58,7.8,5.35,7.74,5.11,7.68
	c-0.06-0.15-0.03-0.31,0-0.46C5.2,6.71,5.23,6.19,5.25,5.67c0.26-0.09,0.56-0.01,0.81-0.14C5.99,4.88,5.97,4.2,6.2,3.57
	c0.19-0.53,0.54-1.05,1.1-1.23c0.26-0.06,0.59-0.13,0.78,0.12c0.05-0.05,0.1-0.09,0.15-0.14C7.8,1.48,8.31,0.25,9.27,0.08
	 M12.66,3.73c-0.11,0.07-0.22,0.15-0.1,0.27c-0.06,0.03-0.11,0.07-0.17,0.1c-0.09,0.07-0.29,0.11-0.27,0.25
	c0.1,0.16,0.19,0.34,0.26,0.51c0.22-0.18,0.4-0.43,0.52-0.69c0.03-0.03,0.08-0.08,0.1-0.1c-0.01-0.12-0.04-0.24-0.08-0.35
	C12.83,3.72,12.75,3.73,12.66,3.73L12.66,3.73z"/>
</svg>
